<svg width="100" height="150" viewBox="0 0 100 150" fill="none" xmlns="http://www.w3.org/2000/svg">
<rect x="0.5" y="0.5" width="99" height="149" stroke="black"/>
<path d="M21.82 66.466L20.7 66.298V65.598H23.304L27.966 72.43L28.75 73.914V66.466L27.532 66.298V65.598H30.836V66.298L29.716 66.466V76H28.61L23.85 69.014L22.772 67.166V75.174L24.102 75.314V76H20.7V75.314L21.82 75.16V66.466ZM31.8136 72.094C31.8136 71.254 31.9863 70.526 32.3316 69.91C32.6769 69.294 33.1296 68.8273 33.6896 68.51C34.2589 68.1833 34.8656 68.02 35.5096 68.02C36.6856 68.02 37.5676 68.3933 38.1556 69.14C38.7529 69.8867 39.0516 70.8667 39.0516 72.08C39.0516 72.9293 38.8789 73.662 38.5336 74.278C38.1883 74.894 37.7309 75.3607 37.1616 75.678C36.6016 75.9953 35.9996 76.154 35.3556 76.154C34.1796 76.154 33.2929 75.7807 32.6956 75.034C32.1076 74.2873 31.8136 73.3073 31.8136 72.094ZM35.4396 75.356C36.0836 75.356 36.5783 75.09 36.9236 74.558C37.2689 74.026 37.4416 73.2373 37.4416 72.192C37.4416 71.156 37.2829 70.3347 36.9656 69.728C36.6483 69.1213 36.1396 68.818 35.4396 68.818C34.7956 68.818 34.2963 69.084 33.9416 69.616C33.5963 70.148 33.4236 70.9367 33.4236 71.982C33.4236 73.018 33.5869 73.8393 33.9136 74.446C34.2403 75.0527 34.7489 75.356 35.4396 75.356ZM43.4854 72.164C43.4854 71.3893 43.6348 70.6893 43.9334 70.064C44.2414 69.4387 44.6894 68.944 45.2774 68.58C45.8748 68.2067 46.5888 68.02 47.4194 68.02C47.8208 68.02 48.1661 68.0573 48.4554 68.132C48.7448 68.2067 49.0901 68.3093 49.4914 68.44L49.4354 70.596H48.5254L48.2174 69.168C48.1614 68.9067 47.8068 68.776 47.1534 68.776C46.5001 68.776 45.9821 69.042 45.5994 69.574C45.2261 70.0967 45.0394 70.8433 45.0394 71.814C45.0394 72.9153 45.2494 73.7553 45.6694 74.334C46.0988 74.9033 46.6541 75.188 47.3354 75.188C47.7274 75.188 48.0961 75.1273 48.4414 75.006C48.7961 74.8847 49.0994 74.74 49.3514 74.572L49.6174 75.132C49.3654 75.3933 48.9921 75.6313 48.4974 75.846C48.0121 76.0513 47.5174 76.154 47.0134 76.154C46.2481 76.154 45.5994 75.9813 45.0674 75.636C44.5448 75.2907 44.1481 74.8193 43.8774 74.222C43.6161 73.6153 43.4854 72.9293 43.4854 72.164ZM50.8312 72.094C50.8312 71.254 51.0038 70.526 51.3492 69.91C51.6945 69.294 52.1472 68.8273 52.7072 68.51C53.2765 68.1833 53.8832 68.02 54.5272 68.02C55.7032 68.02 56.5852 68.3933 57.1732 69.14C57.7705 69.8867 58.0692 70.8667 58.0692 72.08C58.0692 72.9293 57.8965 73.662 57.5512 74.278C57.2058 74.894 56.7485 75.3607 56.1792 75.678C55.6192 75.9953 55.0172 76.154 54.3732 76.154C53.1972 76.154 52.3105 75.7807 51.7132 75.034C51.1252 74.2873 50.8312 73.3073 50.8312 72.094ZM54.4572 75.356C55.1012 75.356 55.5958 75.09 55.9412 74.558C56.2865 74.026 56.4592 73.2373 56.4592 72.192C56.4592 71.156 56.3005 70.3347 55.9832 69.728C55.6658 69.1213 55.1572 68.818 54.4572 68.818C53.8132 68.818 53.3138 69.084 52.9592 69.616C52.6138 70.148 52.4412 70.9367 52.4412 71.982C52.4412 73.018 52.6045 73.8393 52.9312 74.446C53.2578 75.0527 53.7665 75.356 54.4572 75.356ZM58.7047 68.23H61.9528V68.888L60.9588 69.07L62.3728 73.102L62.9608 74.88L63.4648 73.158L64.8788 69.07L63.9268 68.888V68.23H66.7688V68.888L66.0408 69.07L63.3388 76.112H62.1488L59.3348 69.07L58.7047 68.888V68.23ZM70.7498 76.154C69.6204 76.154 68.7571 75.7853 68.1598 75.048C67.5718 74.3107 67.2778 73.326 67.2778 72.094C67.2778 71.282 67.4318 70.568 67.7398 69.952C68.0478 69.336 68.4771 68.86 69.0278 68.524C69.5878 68.188 70.2224 68.02 70.9318 68.02C71.7998 68.02 72.4718 68.2627 72.9478 68.748C73.4331 69.224 73.6898 69.91 73.7178 70.806C73.7178 71.3753 73.6851 71.8093 73.6198 72.108H68.8038C68.8224 73.032 69.0371 73.7787 69.4478 74.348C69.8584 74.908 70.4418 75.188 71.1978 75.188C71.5711 75.188 71.9584 75.1227 72.3598 74.992C72.7704 74.852 73.0878 74.6887 73.3118 74.502L73.5778 75.118C73.3071 75.398 72.9058 75.6407 72.3738 75.846C71.8418 76.0513 71.3004 76.154 70.7498 76.154ZM72.1778 71.366C72.2058 71.17 72.2198 70.9693 72.2198 70.764C72.2104 70.1573 72.0798 69.6813 71.8278 69.336C71.5851 68.9813 71.1978 68.804 70.6658 68.804C70.1244 68.804 69.6904 69 69.3638 69.392C69.0464 69.784 68.8644 70.442 68.8178 71.366H72.1778ZM74.949 75.314L75.999 75.23V69.308L74.991 69.056V68.3L76.923 68.048H76.951L77.259 68.3V68.552L77.217 69.644H77.259C77.3523 69.4853 77.5203 69.28 77.763 69.028C78.0057 68.776 78.3183 68.5473 78.701 68.342C79.0837 68.1273 79.499 68.02 79.947 68.02C80.1337 68.02 80.2877 68.0433 80.409 68.09V69.658C80.3437 69.6113 80.2363 69.5693 80.087 69.532C79.947 69.4853 79.7883 69.462 79.611 69.462C78.8363 69.462 78.1177 69.7 77.455 70.176V75.216L79.233 75.328V76H74.949V75.314Z" fill="black"/>
</svg>
